<svg width="45" height="46" viewBox="0 0 45 46" fill="none" xmlns="http://www.w3.org/2000/svg">

    <path
        d="M19.2501 34.3125L22.3001 36.175C22.5042 36.3094 22.7432 36.381 22.9876 36.381C23.2319 36.381 23.471 36.3094 23.6751 36.175L26.7501 34.3125C26.9542 34.1781 27.1932 34.1064 27.4376 34.1064C27.6819 34.1064 27.921 34.1781 28.1251 34.3125L31.1751 36.175C31.3743 36.293 31.6009 36.3567 31.8324 36.3598C32.0639 36.363 32.2921 36.3054 32.4944 36.1929C32.6968 36.0803 32.8661 35.9168 32.9855 35.7184C33.1049 35.5201 33.1703 35.2939 33.1751 35.0625V11.4375C33.1753 11.2679 33.141 11.1001 33.0743 10.9442C33.0076 10.7884 32.9099 10.6477 32.7871 10.5307C32.6644 10.4138 32.5191 10.3231 32.3601 10.2641C32.2012 10.2051 32.0319 10.179 31.8626 10.1875H14.1626C13.831 10.1875 13.5131 10.3192 13.2787 10.5536C13.0443 10.788 12.9126 11.106 12.9126 11.4375V35.0625C12.9174 35.2939 12.9827 35.5201 13.1022 35.7184C13.2216 35.9168 13.3909 36.0803 13.5932 36.1929C13.7955 36.3054 14.0238 36.363 14.2553 36.3598C14.4868 36.3567 14.7134 36.293 14.9126 36.175L17.9501 34.3125C18.1459 34.1932 18.3708 34.1302 18.6001 34.1302C18.8294 34.1302 19.0542 34.1932 19.2501 34.3125Z"
        stroke="#113F72" stroke-width="2.5" stroke-linecap="round" stroke-linejoin="round" />
    <path d="M19.7375 27H27.0125" stroke="#113F72" stroke-width="2.5" stroke-linecap="round" stroke-linejoin="round" />
    <path d="M19.7375 29.925H27.0125" stroke="#113F72" stroke-width="2.5" stroke-linecap="round"
        stroke-linejoin="round" />
    <path d="M23.3751 14.8125V15.6875" stroke="#113F72" stroke-width="2.5" stroke-linecap="round"
        stroke-linejoin="round" />
    <path d="M23.3751 22.8375V23.7125" stroke="#113F72" stroke-width="2.5" stroke-linecap="round"
        stroke-linejoin="round" />
    <path
        d="M23.375 19.35C23.812 19.387 24.2191 19.5868 24.5158 19.9097C24.8125 20.2326 24.9772 20.6552 24.9772 21.0937C24.9772 21.5323 24.8125 21.9548 24.5158 22.2778C24.2191 22.6007 23.812 22.8004 23.375 22.8375C23.0733 22.8424 22.7758 22.7675 22.5124 22.6204C22.2489 22.4734 22.0291 22.2593 21.875 22"
        stroke="#113F72" stroke-width="2.5" stroke-linecap="round" stroke-linejoin="round" />
    <path
        d="M23.375 19.35C23.0727 19.3534 22.7746 19.2784 22.5098 19.1323C22.2451 18.9862 22.0227 18.774 21.8644 18.5164C21.7061 18.2587 21.6172 17.9645 21.6065 17.6623C21.5957 17.3601 21.6634 17.0603 21.8031 16.7921C21.9427 16.5238 22.1494 16.2964 22.4031 16.1318C22.6568 15.9673 22.9488 15.8713 23.2507 15.8532C23.5525 15.8351 23.8539 15.8956 24.1254 16.0286C24.397 16.1617 24.6294 16.3629 24.8 16.6125"
        stroke="#113F72" stroke-width="2.5" stroke-linecap="round" stroke-linejoin="round" />

</svg>