<svg width="45" height="45" viewBox="0 0 45 45" fill="none" xmlns="http://www.w3.org/2000/svg">
    <path
        d="M27.825 14.8625V19.125C23.875 18.9125 19.4875 20.125 18.4 21.75C18.3375 21.8625 18.275 21.975 18.225 22.0875C18.1686 22.2609 18.1432 22.4429 18.15 22.625C15.9438 22.6087 13.7648 22.1364 11.75 21.2375C11.1684 20.963 10.6558 20.5615 10.25 20.0625C10.1512 19.9148 10.0714 19.7552 10.0125 19.5875C9.95272 19.4364 9.923 19.2751 9.92499 19.1125V14.9625V15.1625C10.0758 15.5825 10.3176 15.9639 10.6331 16.2795C10.9486 16.595 11.33 16.8368 11.75 16.9875C15 18.8125 22.8125 18.8125 26.05 16.9875C27.15 16.4 27.825 15.6625 27.825 14.8625Z"
        stroke="#113F72" stroke-width="2.5" stroke-linecap="round" stroke-linejoin="round" />
    <path d="M9.875 14.9625V14.8625" stroke="#113F72" stroke-width="2.5" stroke-linecap="round"
        stroke-linejoin="round" />
    <path
        d="M18.15 26.8624V31.0999C13.525 30.9624 9.875 29.4499 9.875 27.5999V23.3624C10.0125 24.9749 12.15 25.9249 14.4375 26.4124C15.6588 26.6745 16.9014 26.8251 18.15 26.8624Z"
        stroke="#113F72" stroke-width="2.5" stroke-linecap="round" stroke-linejoin="round" />
    <path d="M9.875 23.3625V22.625" stroke="#113F72" stroke-width="2.5" stroke-linecap="round"
        stroke-linejoin="round" />
    <path
        d="M36.1 22.825V26.875C36.1 27.675 35.425 28.4 34.2875 29C33.1879 29.515 32.0229 29.8767 30.825 30.075H30.7375C28.6703 30.4074 26.5672 30.4537 24.4875 30.2125C22.986 30.0527 21.5185 29.6605 20.1375 29.05C19.25 28.6 18.1875 28 18.15 26.875V22.625C18.1439 22.6623 18.1439 22.7002 18.15 22.7375C18.45 24.8625 22.3875 25.75 24.725 26C27.7 26.3875 32.1625 25.9125 34.275 24.75C34.8742 24.4531 35.3995 24.026 35.8125 23.5C35.9549 23.2978 36.0529 23.0678 36.1 22.825Z"
        stroke="#113F72" stroke-width="2.5" stroke-linecap="round" stroke-linejoin="round" />
    <path d="M36.1125 22.625C36.1248 22.8191 36.0861 23.0131 36 23.1875C36.0734 23.009 36.1116 22.818 36.1125 22.625Z"
        stroke="#113F72" stroke-width="2.5" stroke-linecap="round" stroke-linejoin="round" />
    <path
        d="M9.875 14.8625V14.9625V15.1625C10.031 15.5876 10.2805 15.9723 10.605 16.2882C10.9295 16.6041 11.3208 16.843 11.75 16.9875C15 18.8125 22.8125 18.8125 26.05 16.9875C27.2 16.4 27.875 15.6625 27.875 14.8625C27.5 10.2375 10.2125 10.225 9.875 14.8625Z"
        stroke="#113F72" stroke-width="2.5" stroke-linecap="round" stroke-linejoin="round" />
    <path
        d="M18.1501 22.625V26.8625C16.8889 26.8275 15.6337 26.6769 14.4001 26.4125C12.1126 25.925 9.97506 24.975 9.83756 23.3625V19.1125C9.83557 19.2751 9.86529 19.4364 9.92506 19.5875C9.98393 19.7552 10.0637 19.9148 10.1626 20.0625C10.5684 20.5615 11.081 20.963 11.6626 21.2375C13.7044 22.1482 15.9144 22.6209 18.1501 22.625Z"
        stroke="#113F72" stroke-width="2.5" stroke-linecap="round" stroke-linejoin="round" />
    <path
        d="M36.1 22.825C36.0546 23.0721 35.9565 23.3066 35.8125 23.5125C35.3995 24.0385 34.8742 24.4656 34.275 24.7625C32.1625 25.9375 27.7 26.4125 24.725 26.0125C22.3875 25.7625 18.475 24.875 18.15 22.75C18.1439 22.7127 18.1439 22.6747 18.15 22.6375C18.1432 22.4553 18.1686 22.2733 18.225 22.1C18.225 21.9875 18.3375 21.875 18.4 21.7625C19.4875 20.1375 23.875 18.925 27.825 19.1375C32.0875 19.175 36.4625 20.825 36.1 22.825Z"
        stroke="#113F72" stroke-width="2.5" stroke-linecap="round" stroke-linejoin="round" />
    <path
        d="M36.1 26.875V31.1125C36.1 31.9125 35.425 32.65 34.2875 33.2375C31.0375 35.0625 23.2375 35.0625 19.975 33.2375C18.8375 32.65 18.15 31.9125 18.15 31.1125V26.875C18.15 27.9625 19.225 28.6 20.125 29.0625C21.506 29.673 22.9735 30.0652 24.475 30.225C26.5548 30.4662 28.6578 30.4199 30.725 30.0875H30.8125C32.0025 29.883 33.1589 29.5171 34.25 29C35.425 28.4 36.1 27.675 36.1 26.875Z"
        stroke="#113F72" stroke-width="2.5" stroke-linecap="round" stroke-linejoin="round" />
    <path d="M36.1 26.875V26.5" stroke="#113F72" stroke-width="2.5" stroke-linecap="round" stroke-linejoin="round" />
</svg>