<svg xmlns="http://www.w3.org/2000/svg" width="25" height="25" viewBox="0 0 25 25">
    <path fill-rule="evenodd" clip-rule="evenodd"
        d="M18.253 9.06066C18.8388 8.47487 18.8388 7.52513 18.253 6.93934C17.6673 6.35355 16.7175 6.35355 16.1317 6.93934L12.5962 10.4749L9.06066 6.93936C8.47488 6.35357 7.52513 6.35357 6.93934 6.93936C6.35356 7.52514 6.35356 8.47489 6.93934 9.06068L10.4749 12.5962L6.93934 16.1317C6.35355 16.7175 6.35355 17.6673 6.93934 18.253C7.52513 18.8388 8.47487 18.8388 9.06066 18.253L12.5962 14.7175L16.1317 18.2531C16.7175 18.8389 17.6673 18.8389 18.2531 18.2531C18.8388 17.6673 18.8388 16.7175 18.2531 16.1317L14.7175 12.5962L18.253 9.06066Z" />
</svg>