<svg xmlns="http://www.w3.org/2000/svg" width="15" height="15" viewBox="0 0 15 15">
    <path
        d="M6.5372 10.1572V4.92516H8.0732V10.1572H6.5372ZM7.3212 4.34916C7.07586 4.34916 6.8732 4.29049 6.7132 4.17316C6.5532 4.05582 6.4732 3.86916 6.4732 3.61316C6.4732 3.32516 6.5532 3.13316 6.7132 3.03716C6.8732 2.93049 7.07586 2.87716 7.3212 2.87716C7.53453 2.87716 7.7212 2.93049 7.8812 3.03716C8.05186 3.13316 8.1372 3.32516 8.1372 3.61316C8.1372 3.87982 8.05186 4.07182 7.8812 4.18916C7.7212 4.29582 7.53453 4.34916 7.3212 4.34916ZM7.3052 14.1412C6.3452 14.1412 5.44386 13.9598 4.6012 13.5972C3.7692 13.2452 3.0332 12.7545 2.3932 12.1252C1.76386 11.4852 1.26786 10.7492 0.905197 9.91716C0.553197 9.07449 0.377197 8.17316 0.377197 7.21316C0.377197 6.25316 0.553197 5.35716 0.905197 4.52516C1.26786 3.68249 1.76386 2.94649 2.3932 2.31716C3.0332 1.67716 3.7692 1.18116 4.6012 0.829156C5.44386 0.466489 6.3452 0.285156 7.3052 0.285156C8.2652 0.285156 9.1612 0.466489 9.9932 0.829156C10.8359 1.18116 11.5719 1.67716 12.2012 2.31716C12.8412 2.94649 13.3372 3.68249 13.6892 4.52516C14.0519 5.35716 14.2332 6.25316 14.2332 7.21316C14.2332 8.17316 14.0519 9.07449 13.6892 9.91716C13.3372 10.7492 12.8412 11.4852 12.2012 12.1252C11.5719 12.7545 10.8359 13.2452 9.9932 13.5972C9.1612 13.9598 8.2652 14.1412 7.3052 14.1412ZM7.3052 12.7172C8.0732 12.7172 8.78786 12.5785 9.4492 12.3012C10.1105 12.0132 10.6919 11.6185 11.1932 11.1172C11.7052 10.6052 12.0999 10.0185 12.3772 9.35716C12.6652 8.68516 12.8092 7.97049 12.8092 7.21316C12.8092 6.44516 12.6652 5.73049 12.3772 5.06916C12.0999 4.40782 11.7052 3.82649 11.1932 3.32516C10.6919 2.81316 10.1052 2.41849 9.4332 2.14116C8.77186 1.85316 8.06253 1.70916 7.3052 1.70916C6.5372 1.70916 5.82253 1.85316 5.1612 2.14116C4.49986 2.41849 3.9132 2.81316 3.4012 3.32516C2.89986 3.82649 2.5052 4.41316 2.2172 5.08516C1.93986 5.74649 1.8012 6.45582 1.8012 7.21316C1.8012 7.98116 1.93986 8.69582 2.2172 9.35716C2.5052 10.0185 2.89986 10.6052 3.4012 11.1172C3.9132 11.6185 4.49986 12.0132 5.1612 12.3012C5.8332 12.5785 6.54786 12.7172 7.3052 12.7172Z" />
</svg>