<svg xmlns="http://www.w3.org/2000/svg" width="17" height="17" viewBox="0 0 17 17">
    <path fill-rule="evenodd" clip-rule="evenodd"
        d="M15.6556 2.60112C16.1362 2.12047 16.1362 1.34119 15.6556 0.860545C15.1749 0.3799 14.3957 0.3799 13.915 0.860545L8.45369 6.32186L3.11075 0.978922C2.6301 0.498277 1.85082 0.498277 1.37018 0.978922C0.889533 1.45957 0.889533 2.23885 1.37018 2.71949L6.71312 8.06243L0.860728 13.9148C0.380083 14.3955 0.380082 15.1748 0.860727 15.6554C1.34137 16.136 2.12065 16.136 2.6013 15.6554L8.45369 9.803L14.4245 15.7738C14.9051 16.2544 15.6844 16.2544 16.165 15.7738C16.6457 15.2931 16.6457 14.5138 16.165 14.0332L10.1943 8.06243L15.6556 2.60112Z" />
</svg>