<svg width="18" height="18" viewBox="0 0 18 18" xmlns="http://www.w3.org/2000/svg">
    <path fill-rule="evenodd" clip-rule="evenodd"
        d="M9.3626 0.192604C9.08228 0.0534753 8.75406 0.0534726 8.47375 0.192607L8.46523 0.196835L2.47581 3.4592L2.45793 3.47104C2.20279 3.63983 2 3.92421 2 4.30562V8.8986C2 12.6029 4.22479 15.9832 7.6793 17.4765L7.69575 17.4453L7.68199 17.4776L8.51944 17.8337L8.53915 17.8402L8.54182 17.8412C8.56419 17.8502 8.7185 17.9118 8.88306 17.9118C9.04764 17.9118 9.20196 17.8502 9.2243 17.8412L9.22698 17.8402L9.24596 17.8339L10.1975 17.4327L10.1989 17.4322C13.7258 15.9634 16 12.582 16 8.78262V4.28242C16 3.92759 15.7985 3.6052 15.4895 3.42992L15.483 3.42624L9.37397 0.198246L9.3626 0.192604ZM3.95865 8.87542V4.84501L8.93278 2.13606L14.0647 4.86135V8.78258C14.0647 11.8031 12.2473 14.4981 9.46331 15.6508L8.90801 15.8918L8.47692 15.7017L8.47217 15.6997C5.73279 14.5256 3.95865 11.8296 3.95865 8.87542ZM12.3985 8.28236L8.29509 11.612C7.99847 11.8666 7.5506 11.8327 7.29437 11.5369L5.5256 9.46623C5.26564 9.16189 5.30374 8.70396 5.61043 8.44677C5.9135 8.19262 6.36483 8.23048 6.62132 8.53158L7.57724 9.65379C7.77617 9.88731 8.12514 9.91932 8.36323 9.72588L11.5007 7.17667C11.8068 6.92801 12.2566 6.97539 12.5041 7.28235C12.7505 7.58785 12.7032 8.03508 12.3985 8.28236Z" />
</svg>