<svg width="26" height="26" viewBox="0 0 26 26" xmlns="http://www.w3.org/2000/svg">

    <path fill-rule="evenodd" clip-rule="evenodd"
        d="M19.3839 23.7791C19.7059 24.0071 20.1209 24.0641 20.4909 23.9241C20.8609 23.7831 21.1329 23.4671 21.2149 23.0841C22.0839 19.0001 24.1919 8.66315 24.9829 4.94815C25.0429 4.66815 24.9429 4.37715 24.7229 4.19015C24.5029 4.00315 24.1979 3.94915 23.9259 4.05015C19.7329 5.60215 6.81991 10.4471 1.54191 12.4001C1.20691 12.5241 0.98891 12.8461 0.99991 13.1991C1.01191 13.5531 1.24991 13.8601 1.59291 13.9631C3.95991 14.6711 7.06691 15.6561 7.06691 15.6561C7.06691 15.6561 8.51891 20.0411 9.27591 22.2711C9.37091 22.5511 9.58991 22.7711 9.87891 22.8471C10.1669 22.9221 10.4749 22.8431 10.6899 22.6401C11.9059 21.4921 13.7859 19.7171 13.7859 19.7171C13.7859 19.7171 17.3579 22.3361 19.3839 23.7791ZM8.37391 15.1021L10.0529 20.6401L10.4259 17.1331C10.4259 17.1331 16.9129 11.2821 20.6109 7.94715C20.7189 7.84915 20.7339 7.68515 20.6439 7.57015C20.5549 7.45515 20.3909 7.42815 20.2679 7.50615C15.9819 10.2431 8.37391 15.1021 8.37391 15.1021Z" />


</svg>