<svg width="26" height="26" viewBox="0 0 26 26" xmlns="http://www.w3.org/2000/svg">

    <path
        d="M22.802 15.38C24.817 17.252 25.233 18.149 25.298 18.266C26.13 19.644 24.388 19.748 24.388 19.748L21.034 19.8C21.034 19.8 20.306 19.943 19.37 19.293C18.109 18.435 16.9 16.186 16.003 16.485C15.08 16.784 15.106 18.799 15.106 18.799C15.106 18.799 15.106 19.085 14.898 19.306C14.664 19.553 14.209 19.462 14.209 19.462H12.714C12.714 19.462 9.39904 19.8 6.50004 16.771C3.31504 13.469 0.507042 6.969 0.507042 6.969C0.507042 6.969 0.351042 6.579 0.520042 6.358C0.715042 6.15 1.26104 6.15 1.26104 6.15H4.84904C4.84904 6.15 5.20004 6.15 5.42104 6.358C5.61604 6.501 5.73304 6.8 5.73304 6.8C5.73304 6.8 6.30504 8.243 7.08504 9.569C8.58004 12.156 9.26904 12.715 9.75004 12.442C10.53 12.039 10.309 8.789 10.309 8.789C10.309 8.789 10.322 7.606 9.93204 7.086C9.63304 6.683 9.06104 6.553 8.81404 6.527C8.60604 6.501 8.94404 6.033 9.37304 5.812C10.023 5.5 11.154 5.5 12.506 5.5C13.559 5.5 13.858 5.578 14.261 5.669C15.509 5.968 15.08 7.125 15.08 9.881C15.08 10.778 14.95 12 15.561 12.429C15.834 12.611 16.51 12.455 18.2 9.608C18.98 8.256 19.578 6.657 19.578 6.657C19.578 6.657 19.708 6.384 19.903 6.254C20.111 6.15 20.397 6.15 20.397 6.15H24.167C24.167 6.15 25.311 6.02 25.493 6.527C25.688 7.06 25.064 8.321 23.517 10.362C20.995 13.742 20.709 13.43 22.802 15.38Z" />

</svg>