<svg width="100" height="100" viewBox="0 0 100 100" fill="none" xmlns="http://www.w3.org/2000/svg">
    <path
        d="M49.78 20.5339C45.2687 20.5116 40.9243 22.2387 37.6596 25.3524C34.395 28.4661 32.4643 32.724 32.2732 37.2313C32.0821 41.7387 33.6454 46.1447 36.6348 49.5236C39.6241 52.9024 43.8067 54.9911 48.3038 55.3508H51.2563C55.7533 54.9911 59.9359 52.9024 62.9253 49.5236C65.9146 46.1447 67.478 41.7387 67.2869 37.2313C67.0958 32.724 65.1651 28.4661 61.9004 25.3524C58.6358 22.2387 54.2914 20.5116 49.78 20.5339Z"
        stroke="#113F72" stroke-width="3.67299" stroke-linecap="round" stroke-linejoin="round" />
    <path
        d="M72.9545 63.8738L70.6705 66.4921C69.3664 67.9227 67.7851 69.0733 66.0228 69.8743C64.2605 70.6752 62.3538 71.1097 60.4184 71.1514C58.4831 71.193 56.5595 70.841 54.7643 70.1167C52.9691 69.3924 51.3398 68.3108 49.9753 66.9377L49.7804 63.2611C50.9975 61.7547 52.5081 60.5114 54.2205 59.6068C55.9329 58.7021 57.8113 58.1551 59.7416 57.9988C61.672 57.8425 63.6139 58.0802 65.4496 58.6975C67.2852 59.3149 68.9762 60.2989 70.4198 61.5899L72.9545 63.8738Z"
        stroke="#113F72" stroke-width="3.67299" stroke-linecap="round" stroke-linejoin="round" />
    <path
        d="M26.606 63.8738L28.8899 66.4921C30.1941 67.9227 31.7753 69.0733 33.5376 69.8743C35.2999 70.6752 37.2066 71.1097 39.142 71.1514C41.0773 71.193 43.001 70.841 44.7961 70.1167C46.5913 69.3924 48.2206 68.3108 49.5851 66.9377L49.7801 63.2611C48.563 61.7547 47.0523 60.5114 45.3399 59.6068C43.6275 58.7021 41.7491 58.1551 39.8188 57.9988C37.8884 57.8425 35.9465 58.0802 34.1108 58.6975C32.2752 59.3149 30.5842 60.2989 29.1406 61.5899L26.606 63.8738Z"
        stroke="#113F72" stroke-width="3.67299" stroke-linecap="round" stroke-linejoin="round" />
    <path d="M49.7804 79.0266V55.3232" stroke="#113F72" stroke-width="3.67299" stroke-linecap="round"
        stroke-linejoin="round" />
    <path d="M42.8169 79.0264H56.7436" stroke="#113F72" stroke-width="3.67299" stroke-linecap="round"
        stroke-linejoin="round" />
    <path d="M49.7804 27.1353V29.2243" stroke="#113F72" stroke-width="3.67299" stroke-linecap="round"
        stroke-linejoin="round" />
    <path d="M49.7804 46.2148V48.3039" stroke="#113F72" stroke-width="3.67299" stroke-linecap="round"
        stroke-linejoin="round" />
    <path
        d="M49.7802 37.9424C50.5068 37.9416 51.2209 38.1316 51.8511 38.4934C52.4813 38.8552 53.0054 39.3762 53.371 40.0041C53.7367 40.632 53.9311 41.345 53.9348 42.0716C53.9384 42.7982 53.7512 43.5131 53.3919 44.1447C53.0326 44.7763 52.5138 45.3025 51.8873 45.6706C51.2608 46.0388 50.5487 46.236 49.8221 46.2426C49.0954 46.2491 48.3798 46.0648 47.7468 45.708C47.1138 45.3512 46.5856 44.8344 46.2149 44.2094"
        stroke="#113F72" stroke-width="3.67299" stroke-linecap="round" stroke-linejoin="round" />
    <path
        d="M49.7805 37.9429C49.0662 37.9447 48.3635 37.7621 47.7405 37.4129C47.1175 37.0636 46.5951 36.5594 46.224 35.9491C45.8529 35.3388 45.6455 34.6431 45.6221 33.9292C45.5986 33.2153 45.7597 32.5075 46.0899 31.8741C46.4202 31.2407 46.9082 30.7033 47.507 30.3138C48.1057 29.9244 48.7948 29.696 49.5077 29.6509C50.2205 29.6057 50.933 29.7453 51.576 30.0562C52.2191 30.367 52.7711 30.8385 53.1786 31.4252"
        stroke="#113F72" stroke-width="3.67299" stroke-linecap="round" stroke-linejoin="round" />
</svg>