<svg width="100" height="100" viewBox="0 0 100 100" fill="none" xmlns="http://www.w3.org/2000/svg">
    <path
        d="M42.3321 72.7999C29.5226 58.7783 28.9165 52.3322 29.3022 34.2336C29.2856 33.433 29.4307 32.6373 29.7289 31.8941C30.0271 31.151 30.4723 30.4757 31.0377 29.9086L37.7317 23.1595C38.2955 22.5879 38.9696 22.1368 39.7131 21.8337C40.4565 21.5306 41.2539 21.3819 42.0566 21.3965H58.5851C60.168 21.4029 61.6838 22.037 62.7998 23.1595L69.6041 29.9086C70.7048 31.0235 71.3189 32.5291 71.312 34.0958C72.0007 57.0704 69.3837 60.5964 54.0673 77.5656C53.5946 78.0907 53.0168 78.5105 52.3714 78.7979C51.726 79.0853 51.0274 79.2338 50.3209 79.2338C49.6144 79.2338 48.9158 79.0853 48.2704 78.7979C47.6249 78.5105 47.0471 78.0907 46.5744 77.5656L42.3321 72.7999Z"
        stroke="#113F72" stroke-width="3.67299" stroke-linecap="round" stroke-linejoin="round" />
    <path d="M50.3212 37.813V52.6886" stroke="#113F72" stroke-width="3.67299" stroke-linecap="round"
        stroke-linejoin="round" />
    <path d="M57.7591 45.251H42.8835" stroke="#113F72" stroke-width="3.67299" stroke-linecap="round"
        stroke-linejoin="round" />
</svg>