<svg width="100" height="100" viewBox="0 0 100 100" fill="none" xmlns="http://www.w3.org/2000/svg">
    <path
        d="M62.1362 54.404H70.2416C65.1165 80.4192 25.676 78.9151 24.534 49.7803C24.379 43.9271 26.4482 38.2326 30.3246 33.8442C34.2011 29.4558 39.5966 26.6996 45.4243 26.1309C51.2519 25.5623 57.0785 27.2235 61.7302 30.7797C66.3818 34.336 69.5128 39.5231 70.4922 45.2959H62.1362V54.404Z"
        stroke="#113F72" stroke-width="3.67299" stroke-linecap="round" stroke-linejoin="round" />
    <path
        d="M83.0265 49.7802L74.6704 58.1363C74.5458 58.2653 74.3851 58.3536 74.2094 58.3898C74.0337 58.426 73.8512 58.4084 73.6857 58.3391C73.5202 58.2699 73.3794 58.1524 73.2818 58.0019C73.1842 57.8514 73.1342 57.675 73.1385 57.4957V54.4039H62.1364V45.2958H73.0271V42.037C73.0222 41.8539 73.0739 41.6738 73.175 41.5212C73.2761 41.3686 73.4217 41.2507 73.5922 41.1838C73.7626 41.1168 73.9495 41.104 74.1274 41.147C74.3054 41.19 74.4658 41.2868 74.5869 41.4242L83.0265 49.7802Z"
        stroke="#113F72" stroke-width="3.67299" stroke-linecap="round" stroke-linejoin="round" />
    <path d="M47.6805 38.7227V41.1181" stroke="#113F72" stroke-width="3.67299" stroke-linecap="round"
        stroke-linejoin="round" />
    <path d="M47.6805 57.022V59.4452" stroke="#113F72" stroke-width="3.67299" stroke-linecap="round"
        stroke-linejoin="round" />
    <path
        d="M47.6807 49.084C48.3629 49.0928 49.0314 49.2768 49.6221 49.6182C50.2128 49.9596 50.706 50.447 51.0542 51.0337C51.4024 51.6204 51.5941 52.2867 51.6109 52.9688C51.6277 53.6508 51.469 54.3258 51.15 54.9289C50.831 55.532 50.3625 56.0431 49.7892 56.4131C49.216 56.7831 48.5574 56.9997 47.8764 57.0421C47.1955 57.0844 46.5151 56.9512 45.9004 56.6551C45.2857 56.359 44.7574 55.9099 44.3661 55.351"
        stroke="#113F72" stroke-width="3.67299" stroke-linecap="round" stroke-linejoin="round" />
    <path
        d="M47.6801 49.0843C46.6237 49.0843 45.6106 48.6646 44.8636 47.9177C44.1167 47.1707 43.697 46.1576 43.697 45.1012C43.697 44.0449 44.1167 43.0318 44.8636 42.2848C45.6106 41.5378 46.6237 41.1182 47.6801 41.1182C48.3957 41.1161 49.0982 41.3097 49.7118 41.6778C50.3254 42.046 50.8268 42.5748 51.1618 43.2072"
        stroke="#113F72" stroke-width="3.67299" stroke-linecap="round" stroke-linejoin="round" />
</svg>