<svg width="100" height="100" viewBox="0 0 100 100" fill="none" xmlns="http://www.w3.org/2000/svg">
    <path fill-rule="evenodd" clip-rule="evenodd"
        d="M32.7185 71.147H22.7739C22.4352 71.1471 22.11 71.0145 21.8679 70.7776C21.6259 70.5407 21.4863 70.2184 21.4791 69.8799V57.6764C21.4863 57.3378 21.6259 57.0155 21.8679 56.7786C22.11 56.5417 22.4352 56.4091 22.7739 56.4092H32.7185C33.0571 56.4091 33.3823 56.5417 33.6244 56.7786C33.8664 57.0155 34.006 57.3378 34.0132 57.6764V69.8799C34.006 70.2184 33.8664 70.5407 33.6244 70.7776C33.3823 71.0145 33.0571 71.1471 32.7185 71.147Z"
        stroke="#113F72" stroke-width="3.67299" stroke-linecap="round" stroke-linejoin="round" />
    <path fill-rule="evenodd" clip-rule="evenodd"
        d="M78.7498 57.7038C77.4826 59.3842 70.2652 69.0257 68.0614 71.4775C66.4909 72.8697 64.4576 73.6261 62.3591 73.5986C62.1938 73.5986 45.0868 73.7914 39.9906 73.5986C37.907 73.6706 35.8567 73.0613 34.1505 71.8631V55.9683C34.1922 55.7129 34.1922 55.4524 34.1505 55.1969C36.0175 53.4891 38.3188 52.3285 40.802 51.8426C43.2852 51.3566 45.8542 51.5641 48.2272 52.4422C50.982 53.5441 52.2767 54.6185 53.7367 54.6185H62.1938C64.9485 54.6185 67.7033 59.026 62.8549 62.4144H49.7423C49.399 62.4144 49.0696 62.5508 48.8268 62.7936C48.584 63.0364 48.4476 63.3657 48.4476 63.7091C48.4476 64.0525 48.584 64.3818 48.8268 64.6246C49.0696 64.8674 49.399 65.0038 49.7423 65.0038H62.7447C63.7548 64.9589 64.7395 64.6729 65.6165 64.1697C66.4935 63.6665 67.2374 62.9607 67.7859 62.1113C68.695 61.1472 74.7278 54.6185 75.6645 53.7094C76.6011 52.8003 77.7305 53.0482 78.6396 53.9849C79.0256 54.5236 79.2422 55.1651 79.2618 55.8275C79.2814 56.4899 79.1032 57.1432 78.7498 57.7038ZM64.6455 28.6688C63.6132 27.6426 62.2168 27.0667 60.7613 27.0667C59.3058 27.0667 57.9094 27.6426 56.8771 28.6688L55.8303 29.8533L54.6733 28.6688C53.6286 27.6204 52.2101 27.0299 50.73 27.0274C49.2499 27.0248 47.8294 27.6103 46.781 28.655C45.7326 29.6998 45.1421 31.1182 45.1396 32.5983C45.137 34.0784 45.7225 35.4989 46.7672 36.5474C47.208 36.9881 55.0314 44.8116 55.7201 45.5003L63.4885 37.7043L64.6455 36.5474C65.1703 36.0342 65.5872 35.4215 65.8719 34.745C66.1565 34.0685 66.3032 33.342 66.3032 32.6081C66.3032 31.8741 66.1565 31.1476 65.8719 30.4711C65.5872 29.7947 65.1703 29.1819 64.6455 28.6688Z"
        stroke="#113F72" stroke-width="3.67299" stroke-linecap="round" stroke-linejoin="round" />
</svg>